<svg id="Layer_1" data-name="Layer 1" xmlns="http://www.w3.org/2000/svg" viewBox="0 0 566.93 566.93"><defs><style>.cls-1{font-size:330.55px;fill:#004f9f;font-family:Krungthep;}.cls-2{fill:#f9b233;}.cls-3{font-size:68px;fill:#02509e;}.cls-3,.cls-4{font-family:HiraKakuStdN-W8-83pv-RKSJ-H, Hiragino Kaku Gothic StdN;}.cls-4{isolation:isolate;font-size:26px;fill:#fab435;}</style></defs><title>lamva</title><text class="cls-1" transform="matrix(-1, 0.01, -0.01, -1, 264.47, 98.13)">v</text><rect class="cls-2" x="256.39" y="99.56" width="55.96" height="191.55" rx="6.97"/><rect class="cls-2" x="333.92" y="160.49" width="55.96" height="130.62" rx="6.97"/><rect class="cls-2" x="411.46" y="205.37" width="55.96" height="85.74" rx="6.97"/><path class="cls-2" d="M383.44,120.62l-43.39.31a6,6,0,0,1-6.09-6l-.06-8.51a6,6,0,0,1,6-6.08l43.38-.31a6,6,0,0,1,6.09,6l.07,8.5A6.06,6.06,0,0,1,383.44,120.62Z"/><rect class="cls-2" x="368.68" y="100.06" width="20.85" height="55.23" rx="5.78" transform="translate(-0.91 2.74) rotate(-0.41)"/><path class="cls-2" d="M382.73,117.86,346.46,154c-2.56,2.55-6.47,2.81-8.73.56l-2.9-2.88c-2.25-2.25-2-6.14.56-8.69l36.26-36.11c2.57-2.55,6.48-2.8,8.73-.56l2.9,2.89C385.54,111.42,385.29,115.31,382.73,117.86Z"/><text class="cls-3" transform="translate(68.29 359.66)">Lamvatria</text><text class="cls-4" transform="translate(210.38 394.18)">grow up</text></svg>